# xmcd
#
# Track frame offsets: 
#        150
#        19115
#        43637
#        63660
#        80336
#        108944
#        124791
#        153379
#        187252
#        205995
#        223586
#
# Disc length: 3340 seconds
#
# Revision: 1
# Processed by: cddbd v1.5.2PL0 Copyright (c) Steve Scherf et al.
# Submitted via: ExactAudioCopyFreeDBPlugin 1.0
#
DISCID=9b0d0a0b
DTITLE=Daniel Mille - Astor Piazolla - Cierra tus ojos
DYEAR=2014
DGENRE=Jazz
TTITLE0=Melodia en La menor
TTITLE1=Chiquilin de Bachin
TTITLE2=Cierra tus ojos y escucha
TTITLE3=Llueve sobre Santiago
TTITLE4=Milonga del Angel
TTITLE5=Libertango
TTITLE6=Milonga para tres
TTITLE7=Vuelvo al Sur
TTITLE8=Oblivion
TTITLE9=Los pajaros perdidos
TTITLE10=Ave Maria
EXTD=YEAR: 2014
EXTT0=
EXTT1=
EXTT2=
EXTT3=
EXTT4=
EXTT5=
EXTT6=
EXTT7=
EXTT8=
EXTT9=
EXTT10=
PLAYORDER=
